<svg xmlns="http://www.w3.org/2000/svg" version="1.1" xmlns:xlink="http://www.w3.org/1999/xlink" xmlns:svgjs="http://svgjs.dev/svgjs" width="100%" height="100%" viewBox="0 0 1000 600"><rect width="1000" height="600" x="0" y="0" fill="#e8f6f3"/><g><circle r="166.66666666666666" cx="302.13540140787757" cy="324.35763187090555" fill="#f1f1f1" transform="matrix(0.922722029988466,0,0,0.922722029988466,0,0.7080544270446296)"/><path d="M214.08333331346512 399.3576545349756L211.54166664679843 399.3576545349756L211.54166664679843 392.315987868309L212.89583331346512 392.315987868309Q219.33333331346512 392.315987868309 223.83333331346512 389.83682120164235Q228.33333331346512 387.3576545349756 230.72916664679843 381.27432120164235Q233.14583331346512 375.21182120164235 233.14583331346512 364.71182120164235L233.14583331346512 364.71182120164235L233.14583331346512 272.753487868309Q233.14583331346512 268.253487868309 231.41666664679843 266.08682120164235Q229.68749998013178 263.89932120164235 226.91666664679843 263.23265453497567Q224.14583331346512 262.565987868309 220.83333331346512 262.565987868309L220.83333331346512 262.565987868309L218.89583331346512 262.565987868309L218.89583331346512 256.253487868309L262.54166664679843 256.253487868309L262.54166664679843 262.565987868309L260.5833333134651 262.565987868309Q257.29166664679843 262.565987868309 254.43749998013178 263.315987868309Q251.58333331346512 264.065987868309 249.93749998013178 266.315987868309Q248.29166664679843 268.565987868309 248.29166664679843 273.35765453497567L248.29166664679843 273.35765453497567L248.29166664679843 364.565987868309Q248.29166664679843 374.6076545349757 245.66666664679843 381.3576545349756Q243.04166664679843 388.1076545349756 238.39583331346512 392.003487868309Q233.72916664679843 395.89932120164235 227.52083331346512 397.628487868309Q221.29166664679843 399.3576545349756 214.08333331346512 399.3576545349756L214.08333331346512 399.3576545349756ZM312.79166664679843 363.3576545349757L270.18749998013175 363.3576545349757L270.18749998013175 357.065987868309L272.1458333134651 357.065987868309Q275.43749998013175 357.065987868309 278.2083333134651 356.378487868309Q280.97916664679843 355.71182120164235 282.7083333134651 353.52432120164235Q284.4374999801318 351.3576545349757 284.4374999801318 347.003487868309L284.4374999801318 347.003487868309L284.4374999801318 299.46182120164235Q284.4374999801318 294.96182120164235 282.7083333134651 292.77432120164235Q280.97916664679843 290.6076545349756 278.2083333134651 289.940987868309Q275.43749998013175 289.253487868309 272.1458333134651 289.253487868309L272.1458333134651 289.253487868309L271.68749998013175 289.253487868309L271.68749998013175 282.96182120164235L298.54166664679843 282.96182120164235L298.54166664679843 346.253487868309Q298.54166664679843 350.89932120164235 300.18749998013175 353.2326545349757Q301.8333333134651 355.565987868309 304.6874999801318 356.315987868309Q307.54166664679843 357.065987868309 310.8333333134651 357.065987868309L310.8333333134651 357.065987868309L312.79166664679843 357.065987868309L312.79166664679843 363.3576545349757ZM290.8958333134651 267.96182120164235L290.8958333134651 267.96182120164235Q287.29166664679843 267.96182120164235 284.8124999801318 265.8576545349757Q282.3333333134651 263.753487868309 282.3333333134651 258.64932120164235L282.3333333134651 258.64932120164235Q282.3333333134651 253.39932120164232 284.8124999801318 251.378487868309Q287.29166664679843 249.3576545349757 290.8958333134651 249.3576545349757L290.8958333134651 249.3576545349757Q294.3333333134651 249.3576545349757 296.8958333134651 251.378487868309Q299.4374999801318 253.39932120164232 299.4374999801318 258.64932120164235L299.4374999801318 258.64932120164235Q299.4374999801318 263.753487868309 296.8958333134651 265.8576545349757Q294.3333333134651 267.96182120164235 290.8958333134651 267.96182120164235ZM345.4791666467985 364.8576545349757L345.4791666467985 364.8576545349757Q338.8958333134651 364.8576545349757 333.5624999801318 362.2326545349757Q328.22916664679843 359.6076545349757 325.22916664679843 354.27432120164235Q322.2291666467985 348.96182120164235 322.2291666467985 340.8576545349757L322.2291666467985 340.8576545349757Q322.2291666467985 328.8576545349757 330.7083333134651 323.14932120164235Q339.18749998013175 317.46182120164235 356.4374999801318 316.8576545349757L356.4374999801318 316.8576545349757L368.8958333134651 316.39932120164235L368.8958333134651 307.39932120164235Q368.8958333134651 302.003487868309 367.9791666467985 297.878487868309Q367.0833333134651 293.753487868309 364.0833333134651 291.3576545349756Q361.0833333134651 288.96182120164235 354.9374999801318 288.96182120164235L354.9374999801318 288.96182120164235Q349.2291666467985 288.96182120164235 346.2291666467985 291.065987868309Q343.2291666467985 293.14932120164235 342.2708333134651 296.83682120164235Q341.2916666467985 300.503487868309 341.2916666467985 305.315987868309L341.2916666467985 305.315987868309Q334.97916664679843 305.315987868309 331.7708333134651 303.128487868309Q328.54166664679843 300.96182120164235 328.54166664679843 295.8576545349757L328.54166664679843 295.8576545349757Q328.54166664679843 290.6076545349756 332.2083333134651 287.46182120164235Q335.8958333134651 284.315987868309 342.0416666467985 282.878487868309Q348.18749998013175 281.46182120164235 355.5416666467985 281.46182120164235L355.5416666467985 281.46182120164235Q369.3333333134651 281.46182120164235 376.1666666467985 287.315987868309Q382.9791666467985 293.14932120164235 382.9791666467985 307.39932120164235L382.9791666467985 307.39932120164235L382.9791666467985 346.253487868309Q382.9791666467985 350.46182120164235 383.8958333134651 352.77432120164235Q384.7916666467985 355.1076545349757 386.8958333134651 356.08682120164235Q388.9791666467985 357.065987868309 392.2916666467985 357.065987868309L392.2916666467985 357.065987868309L392.7291666467985 357.065987868309L392.7291666467985 363.3576545349757L372.4791666467985 363.3576545349757L370.0833333134651 350.46182120164235L368.8958333134651 350.46182120164235Q365.7291666467985 354.64932120164235 362.7291666467985 357.878487868309Q359.7291666467985 361.1076545349757 355.7708333134651 362.9826545349757Q351.7916666467985 364.8576545349757 345.4791666467985 364.8576545349757ZM348.93749998013175 355.565987868309L348.93749998013175 355.565987868309Q355.0833333134651 355.565987868309 359.5208333134651 353.003487868309Q363.9374999801318 350.46182120164235 366.4166666467985 345.7326545349757Q368.8958333134651 341.003487868309 368.8958333134651 334.71182120164235L368.8958333134651 334.71182120164235L368.8958333134651 322.565987868309L359.2916666467985 323.003487868309Q350.7291666467985 323.315987868309 345.8541666467985 325.565987868309Q340.9791666467985 327.815987868309 338.8958333134651 331.77432120164235Q336.79166664679843 335.753487868309 336.79166664679843 341.6076545349757L336.79166664679843 341.6076545349757Q336.79166664679843 346.253487868309 338.1458333134651 349.33682120164235Q339.47916664679843 352.39932120164235 342.1874999801318 353.9826545349757Q344.8958333134651 355.565987868309 348.93749998013175 355.565987868309Z " fill="#515151" transform="matrix(0.922722029988466,0,0,0.922722029988466,0,0.7080544270446296)"/><path d="M586.7812499801317 363.3576545349757L552.1354166467984 363.3576545349757L552.1354166467984 357.065987868309L554.0729166467984 357.065987868309Q557.3854166467984 357.065987868309 560.1562499801317 356.378487868309Q562.9270833134651 355.71182120164235 564.6562499801317 353.52432120164235Q566.3854166467984 351.3576545349757 566.3854166467984 347.003487868309L566.3854166467984 347.003487868309L566.3854166467984 272.753487868309Q566.3854166467984 268.253487868309 564.6562499801317 266.08682120164235Q562.9270833134651 263.89932120164235 560.1562499801317 263.23265453497567Q557.3854166467984 262.565987868309 554.0729166467984 262.565987868309L554.0729166467984 262.565987868309L552.1354166467984 262.565987868309L552.1354166467984 256.253487868309L586.3229166467984 256.253487868309L617.3854166467984 342.065987868309L648.1354166467984 256.253487868309L681.4270833134651 256.253487868309L681.4270833134651 262.565987868309L679.4687499801317 262.565987868309Q676.1770833134651 262.565987868309 673.3229166467984 263.315987868309Q670.4687499801317 264.065987868309 668.8229166467984 266.315987868309Q667.1770833134651 268.565987868309 667.1770833134651 273.35765453497567L667.1770833134651 273.35765453497567L667.1770833134651 346.253487868309Q667.1770833134651 350.89932120164235 668.8229166467984 353.2326545349757Q670.4687499801317 355.565987868309 673.3229166467984 356.315987868309Q676.1770833134651 357.065987868309 679.4687499801317 357.065987868309L679.4687499801317 357.065987868309L681.4270833134651 357.065987868309L681.4270833134651 363.3576545349757L641.5312499801317 363.3576545349757L641.5312499801317 357.065987868309L641.9687499801317 357.065987868309Q645.2812499801317 357.065987868309 647.5937499801317 356.378487868309Q649.9270833134651 355.71182120164235 651.2812499801317 353.690987868309Q652.6354166467984 351.64932120164235 652.7812499801317 347.6076545349757L652.7812499801317 347.6076545349757L652.7812499801317 267.503487868309L618.4270833134651 363.3576545349757L610.3229166467984 363.3576545349757L575.5312499801317 267.815987868309L575.5312499801317 346.253487868309Q575.5312499801317 350.89932120164235 576.8020833134651 353.2326545349757Q578.0729166467984 355.565987868309 580.5520833134651 356.315987868309Q583.0312499801317 357.065987868309 586.3229166467984 357.065987868309L586.3229166467984 357.065987868309L586.7812499801317 357.065987868309L586.7812499801317 363.3576545349757ZM705.8854166467984 364.39932120164235L705.8854166467984 364.39932120164235Q701.9687499801317 364.39932120164235 699.1979166467984 362.14932120164235Q696.4270833134651 359.89932120164235 696.4270833134651 354.21182120164235L696.4270833134651 354.21182120164235Q696.4270833134651 348.3576545349757 699.1979166467984 346.190987868309Q701.9687499801317 344.003487868309 705.8854166467984 344.003487868309L705.8854166467984 344.003487868309Q709.7812499801317 344.003487868309 712.5520833134651 346.190987868309Q715.3229166467984 348.3576545349757 715.3229166467984 354.21182120164235L715.3229166467984 354.21182120164235Q715.3229166467984 359.89932120164235 712.5520833134651 362.14932120164235Q709.7812499801317 364.39932120164235 705.8854166467984 364.39932120164235ZM770.6770833134651 363.3576545349757L728.0729166467984 363.3576545349757L728.0729166467984 357.065987868309L730.0312499801317 357.065987868309Q733.3229166467984 357.065987868309 736.0937499801317 356.378487868309Q738.8854166467984 355.71182120164235 740.5937499801317 353.52432120164235Q742.3229166467984 351.3576545349757 742.3229166467984 347.003487868309L742.3229166467984 347.003487868309L742.3229166467984 299.46182120164235Q742.3229166467984 294.96182120164235 740.5937499801317 292.77432120164235Q738.8854166467984 290.6076545349756 736.0937499801317 289.940987868309Q733.3229166467984 289.253487868309 730.0312499801317 289.253487868309L730.0312499801317 289.253487868309L729.5729166467984 289.253487868309L729.5729166467984 282.96182120164235L756.4270833134651 282.96182120164235L756.4270833134651 346.253487868309Q756.4270833134651 350.89932120164235 758.0729166467984 353.2326545349757Q759.7187499801317 355.565987868309 762.5729166467984 356.315987868309Q765.4270833134651 357.065987868309 768.7187499801317 357.065987868309L768.7187499801317 357.065987868309L770.6770833134651 357.065987868309L770.6770833134651 363.3576545349757ZM748.7812499801317 267.96182120164235L748.7812499801317 267.96182120164235Q745.1770833134651 267.96182120164235 742.6979166467984 265.8576545349757Q740.2187499801317 263.753487868309 740.2187499801317 258.64932120164235L740.2187499801317 258.64932120164235Q740.2187499801317 253.39932120164232 742.6979166467984 251.378487868309Q745.1770833134651 249.3576545349757 748.7812499801317 249.3576545349757L748.7812499801317 249.3576545349757Q752.2187499801317 249.3576545349757 754.7812499801317 251.378487868309Q757.3229166467984 253.39932120164232 757.3229166467984 258.64932120164235L757.3229166467984 258.64932120164235Q757.3229166467984 263.753487868309 754.7812499801317 265.8576545349757Q752.2187499801317 267.96182120164235 748.7812499801317 267.96182120164235ZM817.1770833134651 363.3576545349757L776.8229166467984 363.3576545349757L776.8229166467984 357.065987868309L778.0312499801317 357.065987868309Q781.4687499801317 357.065987868309 784.2604166467984 356.315987868309Q787.0312499801317 355.565987868309 788.6770833134651 353.2326545349757Q790.3229166467984 350.89932120164235 790.3229166467984 346.253487868309L790.3229166467984 346.253487868309L790.3229166467984 299.46182120164235Q790.3229166467984 294.96182120164235 788.6770833134651 292.77432120164235Q787.0312499801317 290.6076545349756 784.3229166467984 289.940987868309Q781.6354166467984 289.253487868309 778.3229166467984 289.253487868309L778.3229166467984 289.253487868309L777.5729166467984 289.253487868309L777.5729166467984 282.96182120164235L801.8854166467984 282.96182120164235L803.8229166467984 295.1076545349757L804.5729166467984 295.1076545349757Q807.7187499801317 289.39932120164235 811.2604166467984 286.4826545349757Q814.7812499801317 283.565987868309 818.9687499801316 282.503487868309Q823.1770833134651 281.46182120164235 827.9687499801316 281.46182120164235L827.9687499801316 281.46182120164235Q839.8229166467984 281.46182120164235 846.5104166467984 288.440987868309Q853.1770833134651 295.39932120164235 853.1770833134651 310.8576545349757L853.1770833134651 310.8576545349757L853.1770833134651 346.253487868309Q853.1770833134651 350.89932120164235 854.5937499801316 353.2326545349757Q856.0312499801317 355.565987868309 858.5729166467984 356.315987868309Q861.1354166467984 357.065987868309 864.4270833134651 357.065987868309L864.4270833134651 357.065987868309L865.1770833134651 357.065987868309L865.1770833134651 363.3576545349757L839.0729166467984 363.3576545349757L839.0729166467984 311.6076545349757Q839.0729166467984 301.8576545349757 835.4062499801317 296.46182120164235Q831.7187499801317 291.065987868309 822.5729166467984 291.065987868309L822.5729166467984 291.065987868309Q815.8229166467984 291.065987868309 811.8437499801317 294.440987868309Q807.8854166467984 297.815987868309 806.1562499801317 303.3576545349757Q804.4270833134651 308.89932120164235 804.4270833134651 315.3576545349757L804.4270833134651 315.3576545349757L804.4270833134651 347.003487868309Q804.4270833134651 351.3576545349757 806.0729166467984 353.52432120164235Q807.7187499801317 355.71182120164235 810.4270833134651 356.378487868309Q813.1354166467984 357.065987868309 816.4270833134651 357.065987868309L816.4270833134651 357.065987868309L817.1770833134651 357.065987868309L817.1770833134651 363.3576545349757ZM904.0312499801317 399.3576545349756L904.0312499801317 399.3576545349756Q888.4270833134651 399.3576545349756 880.6354166467984 393.58682120164235Q872.8229166467984 387.815987868309 872.8229166467984 377.46182120164235L872.8229166467984 377.46182120164235Q872.8229166467984 371.6076545349757 875.4479166467984 367.628487868309Q878.0729166467984 363.64932120164235 882.3437499801317 361.39932120164235Q886.6354166467984 359.14932120164235 891.5729166467984 358.253487868309L891.5729166467984 358.253487868309Q888.5729166467984 356.89932120164235 885.9479166467984 353.83682120164235Q883.3229166467984 350.753487868309 883.3229166467984 345.96182120164235L883.3229166467984 345.96182120164235Q883.3229166467984 341.46182120164235 885.6562499801317 338.14932120164235Q887.9687499801317 334.8576545349757 893.0729166467984 331.8576545349757L893.0729166467984 331.8576545349757Q886.6354166467984 329.14932120164235 883.0937499801316 322.940987868309Q879.5729166467984 316.71182120164235 879.5729166467984 309.21182120164235L879.5729166467984 309.21182120164235Q879.5729166467984 296.315987868309 886.6354166467984 288.878487868309Q893.6770833134651 281.46182120164235 907.7812499801317 281.46182120164235L907.7812499801317 281.46182120164235Q913.1770833134651 281.46182120164235 917.9687499801317 282.96182120164235Q922.7812499801317 284.46182120164235 924.8854166467984 286.39932120164235L924.8854166467984 286.39932120164235Q926.3854166467984 284.753487868309 928.4687499801317 282.878487868309Q930.5729166467984 281.003487868309 933.3437499801317 279.64932120164235Q936.1354166467984 278.315987868309 939.4270833134651 278.315987868309L939.4270833134651 278.315987868309Q943.9270833134651 278.315987868309 946.0937499801317 280.628487868309Q948.2812499801317 282.96182120164235 948.2812499801317 286.1076545349757L948.2812499801317 286.1076545349757Q948.2812499801317 289.253487868309 946.4062499801317 291.58682120164235Q944.5312499801317 293.89932120164235 940.3229166467984 293.89932120164235L940.3229166467984 293.89932120164235Q940.3229166467984 292.253487868309 939.3437499801317 290.52432120164235Q938.3854166467984 288.815987868309 935.3854166467984 288.815987868309L935.3854166467984 288.815987868309Q933.4270833134651 288.815987868309 931.9270833134651 289.253487868309Q930.4270833134651 289.71182120164235 928.9270833134651 290.6076545349756L928.9270833134651 290.6076545349756Q931.4687499801317 293.753487868309 933.1354166467984 298.02432120164235Q934.7812499801317 302.315987868309 934.7812499801317 308.753487868309L934.7812499801317 308.753487868309Q934.7812499801317 319.8576545349757 928.0937499801317 327.21182120164235Q921.4270833134651 334.565987868309 907.7812499801317 334.565987868309L907.7812499801317 334.565987868309Q905.9687499801317 334.565987868309 903.6562499801317 334.33682120164235Q901.3229166467984 334.1076545349757 899.8229166467984 333.815987868309L899.8229166467984 333.815987868309Q896.9687499801317 335.315987868309 894.8854166467984 337.565987868309Q892.7812499801317 339.815987868309 892.7812499801317 343.253487868309L892.7812499801317 343.253487868309Q892.7812499801317 345.96182120164235 894.5104166467984 347.46182120164235Q896.2187499801317 348.96182120164235 902.0729166467984 348.96182120164235L902.0729166467984 348.96182120164235L919.0312499801317 348.96182120164235Q928.0312499801317 348.96182120164235 933.4270833134651 351.878487868309Q938.8229166467984 354.815987868309 941.3020833134651 359.83682120164235Q943.7812499801317 364.8576545349757 943.7812499801317 371.315987868309L943.7812499801317 371.315987868309Q943.7812499801317 384.21182120164235 934.0937499801317 391.77432120164235Q924.4270833134651 399.3576545349756 904.0312499801317 399.3576545349756ZM904.3229166467984 392.003487868309L904.3229166467984 392.003487868309Q915.1354166467984 392.003487868309 920.9687499801317 389.690987868309Q926.8229166467984 387.3576545349756 929.1562499801317 383.2326545349756Q931.4687499801317 379.1076545349756 931.4687499801317 373.8576545349757L931.4687499801317 373.8576545349757Q931.4687499801317 366.96182120164235 927.5729166467984 364.628487868309Q923.6770833134651 362.315987868309 916.1770833134651 362.315987868309L916.1770833134651 362.315987868309L901.4687499801317 362.315987868309Q897.2812499801317 362.315987868309 893.5312499801317 363.440987868309Q889.7812499801317 364.565987868309 887.3854166467984 367.565987868309Q884.9687499801317 370.565987868309 884.9687499801317 376.565987868309L884.9687499801317 376.565987868309Q884.9687499801317 380.89932120164235 886.6354166467984 384.440987868309Q888.2812499801317 387.96182120164235 892.4687499801316 389.9826545349756Q896.6770833134651 392.003487868309 904.3229166467984 392.003487868309ZM907.3229166467984 327.3576545349757L907.3229166467984 327.3576545349757Q912.2812499801317 327.3576545349757 915.1979166467984 325.39932120164235Q918.1354166467984 323.46182120164235 919.4062499801317 319.253487868309Q920.6770833134651 315.065987868309 920.6770833134651 308.6076545349757L920.6770833134651 308.6076545349757Q920.6770833134651 301.8576545349757 919.3229166467984 297.440987868309Q917.9687499801317 293.003487868309 915.0520833134651 290.89932120164235Q912.1354166467984 288.815987868309 907.1770833134651 288.815987868309L907.1770833134651 288.815987868309Q902.3854166467984 288.815987868309 899.3854166467984 290.9826545349756Q896.3854166467984 293.14932120164235 895.0312499801317 297.58682120164235Q893.6770833134651 302.003487868309 893.6770833134651 308.753487868309L893.6770833134651 308.753487868309Q893.6770833134651 318.3576545349757 896.9062499801317 322.8576545349757Q900.1354166467984 327.3576545349757 907.3229166467984 327.3576545349757Z " fill="#333333" transform="matrix(0.922722029988466,0,0,0.922722029988466,0,0.7080544270446296)"/></g></svg>